<?xml version="1.0" encoding="UTF-8" standalone="no"?>
<!-- Created with Inkscape (http://www.inkscape.org/) -->

<svg
   width="120mm"
   height="90mm"
   viewBox="0 0 120 90"
   version="1.1"
   id="svg1"
   inkscape:version="1.3.2 (1:1.3.2+202311252150+091e20ef0f)"
   sodipodi:docname="drawing-2.svg"
   xmlns:inkscape="http://www.inkscape.org/namespaces/inkscape"
   xmlns:sodipodi="http://sodipodi.sourceforge.net/DTD/sodipodi-0.dtd"
   xmlns:xlink="http://www.w3.org/1999/xlink"
   xmlns="http://www.w3.org/2000/svg"
   xmlns:svg="http://www.w3.org/2000/svg">
  <sodipodi:namedview
     id="namedview1"
     pagecolor="#ffffff"
     bordercolor="#000000"
     borderopacity="0.25"
     inkscape:showpageshadow="2"
     inkscape:pageopacity="0.0"
     inkscape:pagecheckerboard="0"
     inkscape:deskcolor="#d1d1d1"
     inkscape:document-units="mm"
     showguides="true"
     inkscape:zoom="1.5144501"
     inkscape:cx="280.29977"
     inkscape:cy="93.103103"
     inkscape:window-width="1920"
     inkscape:window-height="1050"
     inkscape:window-x="0"
     inkscape:window-y="0"
     inkscape:window-maximized="1"
     inkscape:current-layer="layer1" />
  <defs
     id="defs1">
    <linearGradient
       id="swatch43"
       inkscape:swatch="solid">
      <stop
         style="stop-color:#77bfd7;stop-opacity:1;"
         offset="0"
         id="stop43" />
    </linearGradient>
    <linearGradient
       id="linearGradient35"
       inkscape:collect="always">
      <stop
         style="stop-color:#4e4ec9;stop-opacity:1;"
         offset="0.24055243"
         id="stop36" />
      <stop
         style="stop-color:#1d5c70;stop-opacity:1;"
         offset="1"
         id="stop35" />
    </linearGradient>
    <linearGradient
       id="linearGradient33"
       inkscape:collect="always">
      <stop
         style="stop-color:#3e1111;stop-opacity:1;"
         offset="0"
         id="stop34" />
      <stop
         style="stop-color:#5a1919;stop-opacity:1;"
         offset="1"
         id="stop33" />
    </linearGradient>
    <linearGradient
       inkscape:collect="always"
       xlink:href="#linearGradient33"
       id="linearGradient34"
       x1="115.1499"
       y1="230.74953"
       x2="345.57605"
       y2="230.74953"
       gradientUnits="userSpaceOnUse" />
    <radialGradient
       inkscape:collect="always"
       xlink:href="#linearGradient35"
       id="radialGradient36"
       cx="34.847305"
       cy="33.455177"
       fx="34.847305"
       fy="33.455177"
       r="7.0617576"
       gradientTransform="matrix(1,0,0,0.9550237,0,1.5046902)"
       gradientUnits="userSpaceOnUse" />
    <radialGradient
       inkscape:collect="always"
       xlink:href="#linearGradient35"
       id="radialGradient36-6"
       cx="34.847305"
       cy="33.455177"
       fx="34.847305"
       fy="33.455177"
       r="7.0617576"
       gradientTransform="matrix(1,0,0,0.9550237,0,1.5046902)"
       gradientUnits="userSpaceOnUse" />
    <radialGradient
       inkscape:collect="always"
       xlink:href="#linearGradient35"
       id="radialGradient36-6-1"
       cx="34.847305"
       cy="33.455177"
       fx="34.847305"
       fy="33.455177"
       r="7.0617576"
       gradientTransform="matrix(1,0,0,0.9550237,0,1.5046902)"
       gradientUnits="userSpaceOnUse" />
    <filter
       inkscape:collect="always"
       style="color-interpolation-filters:sRGB"
       id="filter43"
       x="-0.29202455"
       y="-0.18629223"
       width="1.5840491"
       height="1.3725845">
      <feGaussianBlur
         inkscape:collect="always"
         stdDeviation="0.43151802"
         id="feGaussianBlur43" />
    </filter>
    <filter
       inkscape:collect="always"
       style="color-interpolation-filters:sRGB"
       id="filter43-4"
       x="-0.29202455"
       y="-0.18629223"
       width="1.5840491"
       height="1.3725845">
      <feGaussianBlur
         inkscape:collect="always"
         stdDeviation="0.43151802"
         id="feGaussianBlur43-7" />
    </filter>
    <filter
       inkscape:collect="always"
       style="color-interpolation-filters:sRGB"
       id="filter43-4-4"
       x="-0.29202455"
       y="-0.18629223"
       width="1.5840491"
       height="1.3725845">
      <feGaussianBlur
         inkscape:collect="always"
         stdDeviation="0.43151802"
         id="feGaussianBlur43-7-6" />
    </filter>
    <filter
       inkscape:collect="always"
       style="color-interpolation-filters:sRGB"
       id="filter43-3"
       x="-0.29202455"
       y="-0.18629223"
       width="1.5840491"
       height="1.3725845">
      <feGaussianBlur
         inkscape:collect="always"
         stdDeviation="0.43151802"
         id="feGaussianBlur43-8" />
    </filter>
    <filter
       inkscape:collect="always"
       style="color-interpolation-filters:sRGB"
       id="filter43-4-5"
       x="-0.29202455"
       y="-0.18629223"
       width="1.5840491"
       height="1.3725845">
      <feGaussianBlur
         inkscape:collect="always"
         stdDeviation="0.43151802"
         id="feGaussianBlur43-7-8" />
    </filter>
    <filter
       inkscape:collect="always"
       style="color-interpolation-filters:sRGB"
       id="filter43-4-4-3"
       x="-0.29202455"
       y="-0.18629223"
       width="1.5840491"
       height="1.3725845">
      <feGaussianBlur
         inkscape:collect="always"
         stdDeviation="0.43151802"
         id="feGaussianBlur43-7-6-3" />
    </filter>
    <radialGradient
       inkscape:collect="always"
       xlink:href="#linearGradient35"
       id="radialGradient36-4"
       cx="34.847305"
       cy="33.455177"
       fx="34.847305"
       fy="33.455177"
       r="7.0617576"
       gradientTransform="matrix(1,0,0,0.9550237,0,1.5046902)"
       gradientUnits="userSpaceOnUse" />
    <radialGradient
       inkscape:collect="always"
       xlink:href="#linearGradient35"
       id="radialGradient36-4-7"
       cx="34.847305"
       cy="33.455177"
       fx="34.847305"
       fy="33.455177"
       r="7.0617576"
       gradientTransform="matrix(1,0,0,0.9550237,0,1.5046902)"
       gradientUnits="userSpaceOnUse" />
    <radialGradient
       inkscape:collect="always"
       xlink:href="#linearGradient35"
       id="radialGradient36-4-7-1"
       cx="34.847305"
       cy="33.455177"
       fx="34.847305"
       fy="33.455177"
       r="7.0617576"
       gradientTransform="matrix(1,0,0,0.9550237,0,1.5046902)"
       gradientUnits="userSpaceOnUse" />
  </defs>
  <g
     inkscape:label="Layer 1"
     inkscape:groupmode="layer"
     id="layer1">
    <path
       sodipodi:type="star"
       style="fill:url(#radialGradient36-6);fill-opacity:0.571926;stroke:none;stroke-width:0.499999;stroke-linecap:round;stroke-linejoin:round;stroke-miterlimit:6.5;stroke-dasharray:none;stroke-opacity:1;paint-order:fill markers stroke"
       id="path34-4"
       inkscape:flatsided="true"
       sodipodi:sides="5"
       sodipodi:cx="34.830715"
       sodipodi:cy="34.123337"
       sodipodi:r1="7.1625123"
       sodipodi:r2="5.7945943"
       sodipodi:arg1="0.94997345"
       sodipodi:arg2="1.578292"
       inkscape:rounded="0"
       inkscape:randomized="0"
       d="m 38.997182,39.949325 -8.419802,-0.06311 -2.541837,-8.027211 6.848859,-4.897975 6.774666,5.000095 z"
       inkscape:transform-center-x="-0.016589832"
       inkscape:transform-center-y="-0.668162"
       transform="translate(39.972062,8.6879318)" />
    <path
       sodipodi:type="star"
       style="fill:url(#radialGradient36-6-1);fill-opacity:0.571926;stroke:none;stroke-width:0.499999;stroke-linecap:round;stroke-linejoin:round;stroke-miterlimit:6.5;stroke-dasharray:none;stroke-opacity:1;paint-order:fill markers stroke"
       id="path34-4-4"
       inkscape:flatsided="true"
       sodipodi:sides="5"
       sodipodi:cx="34.830715"
       sodipodi:cy="34.123337"
       sodipodi:r1="7.1625123"
       sodipodi:r2="5.7945943"
       sodipodi:arg1="0.94997345"
       sodipodi:arg2="1.578292"
       inkscape:rounded="0"
       inkscape:randomized="0"
       d="m 38.997182,39.949325 -8.419802,-0.06311 -2.541837,-8.027211 6.848859,-4.897975 6.774666,5.000095 z"
       inkscape:transform-center-x="-0.016589832"
       inkscape:transform-center-y="-0.668162"
       transform="translate(26.262302,8.6979461)" />
    <path
       sodipodi:type="star"
       style="fill:url(#radialGradient36);fill-opacity:0.571926;stroke:none;stroke-width:0.499999;stroke-linecap:round;stroke-linejoin:round;stroke-miterlimit:6.5;stroke-dasharray:none;stroke-opacity:1;paint-order:fill markers stroke"
       id="path34"
       inkscape:flatsided="true"
       sodipodi:sides="5"
       sodipodi:cx="34.830715"
       sodipodi:cy="34.123337"
       sodipodi:r1="7.1625123"
       sodipodi:r2="5.7945943"
       sodipodi:arg1="0.94997345"
       sodipodi:arg2="1.578292"
       inkscape:rounded="0"
       inkscape:randomized="0"
       d="m 38.997182,39.949325 -8.419802,-0.06311 -2.541837,-8.027211 6.848859,-4.897975 6.774666,5.000095 z"
       inkscape:transform-center-x="-0.016589832"
       inkscape:transform-center-y="-0.668162"
       transform="translate(12.565656,8.6353759)" />
    <path
       sodipodi:type="star"
       style="fill:url(#radialGradient36-4);fill-opacity:0.571926;stroke:none;stroke-width:0.499999;stroke-linecap:round;stroke-linejoin:round;stroke-miterlimit:6.5;stroke-dasharray:none;stroke-opacity:1;paint-order:fill markers stroke"
       id="path34-1"
       inkscape:flatsided="true"
       sodipodi:sides="5"
       sodipodi:cx="34.830715"
       sodipodi:cy="34.123337"
       sodipodi:r1="7.1625123"
       sodipodi:r2="5.7945943"
       sodipodi:arg1="0.94997345"
       sodipodi:arg2="1.578292"
       inkscape:rounded="0"
       inkscape:randomized="0"
       d="m 38.997182,39.949325 -8.419802,-0.06311 -2.541837,-8.027211 6.848859,-4.897975 6.774666,5.000095 z"
       inkscape:transform-center-x="-0.016589832"
       inkscape:transform-center-y="-0.668162"
       transform="translate(19.507237,5.3246365)" />
    <path
       sodipodi:type="star"
       style="fill:url(#radialGradient36-4-7);fill-opacity:0.571926;stroke:none;stroke-width:0.499999;stroke-linecap:round;stroke-linejoin:round;stroke-miterlimit:6.5;stroke-dasharray:none;stroke-opacity:1;paint-order:fill markers stroke"
       id="path34-1-3"
       inkscape:flatsided="true"
       sodipodi:sides="5"
       sodipodi:cx="34.830715"
       sodipodi:cy="34.123337"
       sodipodi:r1="7.1625123"
       sodipodi:r2="5.7945943"
       sodipodi:arg1="0.94997345"
       sodipodi:arg2="1.578292"
       inkscape:rounded="0"
       inkscape:randomized="0"
       d="m 38.997182,39.949325 -8.419802,-0.06311 -2.541837,-8.027211 6.848859,-4.897975 6.774666,5.000095 z"
       inkscape:transform-center-x="-0.016589832"
       inkscape:transform-center-y="-0.668162"
       transform="translate(32.932533,5.4138407)" />
    <path
       sodipodi:type="star"
       style="fill:url(#radialGradient36-4-7-1);fill-opacity:0.571926;stroke:none;stroke-width:0.499999;stroke-linecap:round;stroke-linejoin:round;stroke-miterlimit:6.5;stroke-dasharray:none;stroke-opacity:1;paint-order:fill markers stroke"
       id="path34-1-3-0"
       inkscape:flatsided="true"
       sodipodi:sides="5"
       sodipodi:cx="34.830715"
       sodipodi:cy="34.123337"
       sodipodi:r1="7.1625123"
       sodipodi:r2="5.7945943"
       sodipodi:arg1="0.94997345"
       sodipodi:arg2="1.578292"
       inkscape:rounded="0"
       inkscape:randomized="0"
       d="m 38.997182,39.949325 -8.419802,-0.06311 -2.541837,-8.027211 6.848859,-4.897975 6.774666,5.000095 z"
       inkscape:transform-center-x="-0.016589832"
       inkscape:transform-center-y="-0.668162"
       transform="translate(26.37514,3.2213609)" />
    <path
       d="m 47.807617,51.133588 9.734164,0.02334 9.734165,0.02334"
       style="fill-opacity:0;stroke:#f5536f;stroke-width:0.3;stroke-linejoin:round;stroke-miterlimit:6.5;stroke-opacity:0.678113;paint-order:fill markers stroke"
       id="path1" />
    <rect
       style="fill:#000000;fill-opacity:0.571926;stroke:#533940;stroke-width:1.5;stroke-linejoin:round;stroke-miterlimit:6.5;stroke-dasharray:none;stroke-opacity:0.984554;paint-order:fill markers stroke"
       id="rect1"
       width="62.444576"
       height="34.382362"
       x="29.718069"
       y="43.853958"
       ry="2.8430424" />
    <path
       id="rect2"
       style="fill-opacity:0;stroke:#6c1f1f;stroke-width:0.3;stroke-linejoin:round;stroke-miterlimit:6.5;stroke-opacity:1;paint-order:fill markers stroke"
       d="m 44.879553,51.761074 c 1.619207,-1.920062 0.747425,-3.99116 0.747425,-3.99116 l 7.67052,-0.0073 3.83526,-0.0037 c 0.0018,0.08058 0.918196,2.570247 1.699688,3.184568 0.781492,0.614321 0.209273,0.579234 2.280202,0.586768 1.996118,0.0073 1.193766,0.10326 2.235006,-0.592903 1.041241,-0.696162 1.461485,-3.078973 1.455629,-3.185743 l 3.83526,-0.0037 7.67052,-0.0073 c 0,0 -0.609645,2.041075 0.987036,4.010978 1.59668,1.969902 5.078317,1.292569 5.078317,1.292569 l -0.07292,11.102225 c 0,0 -3.307969,-0.724447 -4.966749,1.022861 -1.658779,1.747308 -1.07282,4.864397 -1.07282,4.864397 l -30.490887,0.07852 c 0,0 0.591077,-3.176369 -0.949798,-4.996079 -1.540874,-1.81971 -4.948428,-0.895316 -4.948428,-0.895316 l 0.03774,-11.2068 c 0,0 3.167259,0.883483 4.968981,-1.253004 z"
       sodipodi:nodetypes="sccczszccczcczcczccss" />
    <rect
       style="fill:#000000;fill-opacity:0;stroke:#000000;stroke-width:1.2;stroke-linejoin:round;stroke-miterlimit:6.5;stroke-dasharray:none;stroke-opacity:0.984554;paint-order:fill markers stroke"
       id="rect10"
       width="2.3443189"
       height="1.860062"
       x="59.805744"
       y="48.207706" />
    <path
       style="fill:#000000;fill-opacity:0;stroke:#6c1f1f;stroke-width:0.5;stroke-linecap:round;stroke-linejoin:round;stroke-miterlimit:6.5;stroke-dasharray:none;stroke-opacity:1;paint-order:fill markers stroke"
       d="M 43.209538,53.004963 H 79.191005"
       id="path10" />
    <path
       style="fill:#000000;fill-opacity:0;stroke:#6c1f1f;stroke-width:0.499999;stroke-linecap:round;stroke-linejoin:round;stroke-miterlimit:6.5;stroke-dasharray:none;stroke-opacity:1;paint-order:fill markers stroke"
       d="M 39.888334,58.082341 H 82.359422"
       id="path11" />
    <path
       style="fill:#000000;fill-opacity:0;stroke:#6c1f1f;stroke-width:0.499999;stroke-linecap:round;stroke-linejoin:round;stroke-miterlimit:6.5;stroke-dasharray:none;stroke-opacity:1;paint-order:fill markers stroke"
       d="M 44.190967,64.486845 H 78.04392"
       id="path12" />
    <path
       style="fill:#a85f06;fill-opacity:0.745839;stroke:#6c1f1f;stroke-width:0.623911;stroke-linecap:round;stroke-linejoin:round;stroke-miterlimit:6.5;stroke-dasharray:none;stroke-opacity:1;paint-order:fill markers stroke"
       d="m 169.1208,197.1795 c 4.07226,-4.08146 5.80626,-9.93588 4.49284,-15.16895 l -0.1899,-0.75664 h 20.96215 20.96215 l 0.74906,1.89838 c 1.67889,4.25493 3.75572,7.84058 5.63943,9.73649 1.03574,1.04245 2.2775,2.04529 2.75947,2.22854 0.48197,0.18324 3.44443,0.33317 6.58325,0.33317 h 5.70695 l 2.16355,-1.63786 c 1.18996,-0.90082 2.48286,-2.08628 2.87313,-2.63435 1.09211,-1.53373 2.50725,-4.88287 3.18203,-7.53076 l 0.60998,-2.39361 h 20.89158 20.89158 l 0.008,2.88884 c 0.004,1.58886 0.16136,3.5574 0.34872,4.37453 0.64513,2.81353 2.5488,6.20019 4.74319,8.43822 l 2.08522,2.12667 h -63.68042 -63.68042 z"
       id="path14"
       transform="scale(0.26458333)" />
    <path
       style="fill:#a85f06;fill-opacity:0.745839;stroke:#6c1f1f;stroke-width:0.623911;stroke-linecap:round;stroke-linejoin:round;stroke-miterlimit:6.5;stroke-dasharray:none;stroke-opacity:1;paint-order:fill markers stroke"
       d="m 151.37508,215.97289 c 0,-1.42356 0.0966,-5.25399 0.21457,-8.51205 l 0.21457,-5.92376 3.99488,0.008 c 19.9538,0.0396 148.72316,-0.013 151.32559,-0.0618 l 3.38406,-0.0634 v 8.5707 8.57071 h -79.56683 -79.56684 z"
       id="path15"
       transform="scale(0.26458333)" />
    <path
       style="fill:#a85f06;fill-opacity:0.745839;stroke:#6c1f1f;stroke-width:0.623911;stroke-linecap:round;stroke-linejoin:round;stroke-miterlimit:6.5;stroke-dasharray:none;stroke-opacity:1;paint-order:fill markers stroke"
       d="m 230.61176,242.64989 c -61.17564,-0.16656 -65.3174,-0.21362 -67.02102,-0.76153 -2.03446,-0.65431 -6.87052,-0.86757 -10.1522,-0.4477 l -2.06346,0.26401 V 231.12339 220.5421 h 79.56684 79.56683 v 9.53317 c 0,5.24324 -0.0866,9.96615 -0.19244,10.49536 l -0.19244,0.96221 -2.53132,-0.24814 c -2.967,-0.29084 -7.64666,0.16052 -10.068,0.97109 -1.60358,0.53681 -5.67944,0.56082 -66.91279,0.3941 z"
       id="path16"
       transform="scale(0.26458333)" />
    <path
       style="fill:#a85f06;fill-opacity:0.745839;stroke:#6c1f1f;stroke-width:0.623911;stroke-linecap:round;stroke-linejoin:round;stroke-miterlimit:6.5;stroke-dasharray:none;stroke-opacity:1;paint-order:fill markers stroke"
       d="m 174.07684,260.90329 c 0.2661,-5.67704 -1.20889,-11.51411 -3.7521,-14.84843 l -0.82486,-1.08145 h 61.44734 61.44734 l -1.13864,1.40315 c -2.8513,3.51371 -3.96517,7.23814 -3.99889,13.37111 l -0.024,4.37445 -56.65352,8e-5 -56.65351,8e-5 z"
       id="path17"
       transform="scale(0.26458333)" />
    <path
       style="fill:#a85f06;fill-opacity:0.745839;stroke:#6c1f1f;stroke-width:0.0137866;stroke-linecap:round;stroke-linejoin:round;stroke-miterlimit:6.5;stroke-dasharray:none;stroke-opacity:1;paint-order:fill markers stroke"
       d="m 161.01713,201.19596 c 0.45149,-0.0942 0.91575,-0.20616 1.29332,-0.3118 l 0.1917,-0.0536 0.0399,0.057 c 0.10007,0.14281 0.25947,0.26601 0.42817,0.33093 l 0.0459,0.0176 -1.09432,-2.5e-4 -1.09431,-2.5e-4 z"
       id="path18"
       transform="scale(0.26458333)" />
    <path
       style="fill:#a85f06;fill-opacity:0.745839;stroke:#6c1f1f;stroke-width:0.0137866;stroke-linecap:round;stroke-linejoin:round;stroke-miterlimit:6.5;stroke-dasharray:none;stroke-opacity:1;paint-order:fill markers stroke"
       d="m 165.98227,199.38081 c 0.002,-0.002 0.0753,-0.0448 0.16354,-0.0959 0.36071,-0.20897 0.80284,-0.49146 1.09152,-0.6974 0.0386,-0.0275 0.0729,-0.05 0.0763,-0.05 0.003,0 -0.0746,0.0812 -0.17323,0.18056 -0.10343,0.10413 -0.18561,0.19301 -0.19416,0.20996 -0.0463,0.0919 -0.0501,0.19847 -0.01,0.28407 0.0288,0.0616 0.0857,0.12162 0.14195,0.14971 l 0.044,0.022 h -0.57143 c -0.31428,0 -0.57005,-0.001 -0.56838,-0.003 z"
       id="path19"
       transform="scale(0.26458333)" />
    <path
       style="fill:#a85f06;fill-opacity:0.745839;stroke:#6c1f1f;stroke-width:0.0275732;stroke-linecap:round;stroke-linejoin:round;stroke-miterlimit:6.5;stroke-dasharray:none;stroke-opacity:1;paint-order:fill markers stroke"
       d="m 166.1604,242.91132 c -0.24353,-0.12133 -0.51686,-0.2446 -0.8025,-0.36193 -0.10432,-0.0429 -0.17899,-0.0781 -0.16592,-0.0784 0.0131,-2.8e-4 0.15423,0.009 0.3137,0.0208 1.71297,0.12583 5.24509,0.20367 12.22525,0.26942 0.73564,0.007 -1.00794,0.0117 -4.81924,0.0133 -5.368,0.002 -5.98328,0.005 -6.08437,0.0254 -0.12705,0.0259 -0.28494,0.0964 -0.3824,0.17056 l -0.0657,0.05 z"
       id="path20"
       transform="scale(0.26458333)" />
    <path
       style="fill:#6c1f1f;fill-opacity:1;stroke:#6c1f1f;stroke-width:0.0275732;stroke-linecap:round;stroke-linejoin:round;stroke-miterlimit:6.5;stroke-dasharray:none;stroke-opacity:1;paint-order:fill markers stroke"
       d="m 169.00561,244.85498 -0.17509,-0.16575 0.25534,-9e-5 0.25534,-1e-4 -0.0458,0.0397 c -0.0693,0.06 -0.0965,0.11317 -0.10601,0.20693 l -0.009,0.085 z"
       id="path21"
       transform="scale(0.26458333)" />
    <path
       style="fill:#6c1f1f;fill-opacity:1;stroke:#6c1f1f;stroke-width:0.0275732;stroke-linecap:round;stroke-linejoin:round;stroke-miterlimit:6.5;stroke-dasharray:none;stroke-opacity:1;paint-order:fill markers stroke"
       d="m 166.10924,242.86647 c -0.14049,-0.0699 -0.3751,-0.17898 -0.52137,-0.24237 -0.14626,-0.0634 -0.26385,-0.11733 -0.26131,-0.11987 0.003,-0.003 0.14523,0.005 0.31709,0.0169 1.22887,0.0844 3.46964,0.14947 6.8054,0.19769 0.60187,0.009 1.19608,0.0173 1.32047,0.0191 0.23508,0.003 -0.39334,0.007 -4.50127,0.0231 l -2.45126,0.01 -0.12624,0.0477 c -0.0694,0.0262 -0.16972,0.0768 -0.22286,0.11246 -0.0531,0.0356 -0.0981,0.0643 -0.0999,0.0637 -0.002,-5.9e-4 -0.11824,-0.0583 -0.25873,-0.12818 z"
       id="path22"
       transform="scale(0.26458333)" />
    <path
       style="fill:#6c1f1f;fill-opacity:1;stroke:#6c1f1f;stroke-width:0.0275732;stroke-linecap:round;stroke-linejoin:round;stroke-miterlimit:6.5;stroke-dasharray:none;stroke-opacity:1;paint-order:fill markers stroke"
       d="m 173.99568,242.74871 c 0.10432,-0.005 0.27503,-0.005 0.37936,1.2e-4 0.13802,0.006 0.0864,0.008 -0.18968,0.008 -0.27592,-9e-5 -0.32764,-0.002 -0.18968,-0.008 z"
       id="path23"
       transform="scale(0.26458333)" />
    <path
       style="fill:#6c1f1f;fill-opacity:1;stroke:#6c1f1f;stroke-width:0.0194972;stroke-linecap:round;stroke-linejoin:round;stroke-miterlimit:6.5;stroke-dasharray:none;stroke-opacity:1;paint-order:fill markers stroke"
       d="m 166.24744,199.23894 c 0.28253,-0.16807 0.54644,-0.33432 0.76701,-0.48316 0.0956,-0.0645 0.17613,-0.11725 0.17904,-0.11725 0.003,0 -0.0517,0.0592 -0.12125,0.13154 -0.13708,0.14252 -0.1634,0.18556 -0.17209,0.28133 -0.0102,0.11291 0.0389,0.22465 0.12806,0.29128 l 0.038,0.0284 -0.52028,-7e-5 -0.52029,-8e-5 z"
       id="path24"
       transform="scale(0.26458333)" />
    <path
       style="fill:#6c1f1f;fill-opacity:1;stroke:#6c1f1f;stroke-width:0.0194972;stroke-linecap:round;stroke-linejoin:round;stroke-miterlimit:6.5;stroke-dasharray:none;stroke-opacity:1;paint-order:fill markers stroke"
       d="m 161.21664,201.16554 c 0.34245,-0.0755 0.74227,-0.17351 1.04833,-0.25691 l 0.23214,-0.0633 0.0155,0.0235 c 0.0767,0.11637 0.21038,0.23541 0.34832,0.31016 l 0.0902,0.0489 -1.00594,-5.7e-4 -1.00593,-5.7e-4 z"
       id="path25"
       transform="scale(0.26458333)" />
    <path
       style="fill:#6c1f1f;fill-opacity:1;stroke:#6c1f1f;stroke-width:0.0137866;stroke-linecap:round;stroke-linejoin:round;stroke-miterlimit:6.5;stroke-dasharray:none;stroke-opacity:1;paint-order:fill markers stroke"
       d="m 151.40851,202.41647 c 0.001,-0.72543 0.004,-1.32048 0.006,-1.32234 0.002,-0.002 0.11799,0.0193 0.25806,0.047 0.14008,0.0277 0.28915,0.0569 0.33128,0.0649 l 0.0766,0.0145 -0.15715,8.4e-4 c -0.17146,9.2e-4 -0.2177,0.008 -0.27647,0.0425 -0.092,0.0539 -0.14439,0.13903 -0.15517,0.25221 -0.004,0.037 -0.0242,0.55154 -0.0459,1.14338 l -0.0395,1.07607 z"
       id="path26"
       transform="scale(0.26458333)" />
    <path
       style="fill:#6c1f1f;fill-opacity:1;stroke:#6c1f1f;stroke-width:0.0551465;stroke-linecap:round;stroke-linejoin:round;stroke-miterlimit:6.5;stroke-dasharray:none;stroke-opacity:1;paint-order:fill markers stroke"
       d="m 299.96625,201.01558 0.16717,-0.16282 0.35018,0.0746 c 0.29038,0.0618 0.93882,0.18279 1.24022,0.23138 0.0401,0.006 -0.37653,0.0135 -0.92589,0.0157 l -0.99886,0.004 z"
       id="path27"
       transform="scale(0.26458333)" />
    <path
       style="fill:#6c1f1f;fill-opacity:1;stroke:#6c1f1f;stroke-width:0.0551465;stroke-linecap:round;stroke-linejoin:round;stroke-miterlimit:6.5;stroke-dasharray:none;stroke-opacity:1;paint-order:fill markers stroke"
       d="m 294.83483,199.29224 c 0.0421,-0.0536 0.0605,-0.11943 0.0605,-0.21719 0,-0.12994 -0.0121,-0.15339 -0.16364,-0.31707 -0.09,-0.0972 -0.15635,-0.17675 -0.14743,-0.17675 0.009,0 0.13933,0.0776 0.28981,0.17237 0.15048,0.0948 0.45629,0.27208 0.67959,0.39395 l 0.406,0.22158 h -0.59264 -0.59265 z"
       id="path28"
       transform="scale(0.26458333)" />
    <path
       style="fill:#6c1f1f;fill-opacity:1;stroke:#6c1f1f;stroke-width:0.0275732;stroke-linecap:round;stroke-linejoin:round;stroke-miterlimit:6.5;stroke-dasharray:none;stroke-opacity:1;paint-order:fill markers stroke"
       d="m 292.69066,245.1041 c 0.0463,-0.12513 0.0184,-0.26411 -0.0711,-0.35358 l -0.0623,-0.0623 0.33002,4.9e-4 0.33002,4.9e-4 -0.0583,0.0469 c -0.0519,0.0418 -0.37929,0.31278 -0.45124,0.37348 -0.0263,0.0222 -0.0273,0.0219 -0.0172,-0.006 z"
       id="path29"
       transform="scale(0.26458333)" />
    <path
       style="fill:#3e1111;fill-opacity:1;stroke:#6c1f1f;stroke-width:0.0275732;stroke-linecap:round;stroke-linejoin:round;stroke-miterlimit:6.5;stroke-dasharray:none;stroke-opacity:1;paint-order:fill markers stroke"
       d="m 295.6309,243.0521 c -0.0528,-0.0532 -0.13014,-0.11627 -0.17175,-0.14003 l -0.0756,-0.0432 0.26659,-0.0179 c 0.14662,-0.01 0.40404,-0.0306 0.57205,-0.046 0.168,-0.0154 0.31573,-0.0278 0.32829,-0.0275 0.0126,3.3e-4 -0.0594,0.0354 -0.15989,0.078 -0.1005,0.0426 -0.24167,0.1041 -0.31371,0.13677 -0.072,0.0327 -0.18022,0.0813 -0.24041,0.10804 l -0.10943,0.0487 z"
       id="path30"
       transform="scale(0.26458333)" />
    <path
       style="fill:url(#linearGradient34);fill-opacity:1;stroke:#6c1f1f;stroke-width:0.311955;stroke-linecap:round;stroke-linejoin:round;stroke-miterlimit:6.5;stroke-dasharray:none;stroke-opacity:1;paint-order:fill markers stroke"
       d="m 121.75091,292.65814 c -2.78102,-0.46258 -5.27232,-2.65362 -6.11334,-5.37653 -0.32941,-1.0665 -0.33169,-1.45482 -0.33169,-56.58999 0,-54.02257 0.008,-55.54315 0.31275,-56.52098 0.79145,-2.54292 3.09435,-4.69865 5.64846,-5.28746 0.48446,-0.11169 36.62623,-0.16834 109.12094,-0.17104 107.66739,-0.004 108.4037,-0.002 109.45758,0.32368 2.00601,0.6196 3.81993,2.1384 4.76399,3.98891 0.85293,1.67188 0.80775,-1.54859 0.81038,57.7587 0.002,48.27796 -0.0279,55.17601 -0.24381,56.00495 -0.68249,2.6203 -2.4939,4.59776 -5.13206,5.60251 l -0.97713,0.37215 -108.2076,0.0225 c -64.15162,0.0133 -108.57438,-0.0385 -109.10847,-0.12737 z m 161.10754,-27.36048 5.86022,-0.10238 -0.0325,-0.99046 c -0.24104,-7.34314 0.004,-9.74946 1.32022,-12.9585 1.97028,-4.80415 5.16157,-7.2832 10.76287,-8.36078 2.42398,-0.46634 8.24999,-0.34888 10.17607,0.20515 0.14932,0.043 0.38157,-0.032 0.51612,-0.16655 0.20993,-0.20993 0.2543,-1.82676 0.31271,-11.39404 0.0514,-8.4319 0.11677,-11.19812 0.26798,-11.34933 0.2409,-0.24089 0.26487,-1.15846 0.0362,-1.38709 -0.10331,-0.1033 -0.17942,-3.60183 -0.20635,-9.48364 l -0.0427,-9.31995 -0.90792,0.0399 c -0.49936,0.0219 -2.57932,0.0515 -4.62214,0.0658 -3.85548,0.0269 -3.92052,0.0193 -7.25805,-0.84123 -1.13728,-0.29324 -3.27984,-1.36294 -4.40483,-2.19919 -2.41819,-1.7975 -4.57561,-5.28962 -5.495,-8.8945 -0.592,-2.32123 -0.6281,-5.75301 -0.0799,-7.59109 0.0445,-0.14932 -0.0383,-0.39074 -0.18403,-0.53649 -0.24065,-0.24066 -2.27762,-0.26478 -22.16711,-0.26249 -12.04616,0.001 -21.99843,0.0636 -22.11616,0.13832 -0.11773,0.0747 -0.36323,0.8721 -0.54556,1.77204 -0.40307,1.9895 -1.4217,5.10177 -2.13655,6.52795 -0.96262,1.9205 -1.88125,3.02826 -3.57184,4.30721 -0.87308,0.6605 -1.74349,1.29601 -1.93424,1.41223 -0.52222,0.3182 -10.90772,0.21451 -11.48946,-0.11472 -0.91564,-0.51819 -3.0481,-2.64329 -3.82403,-3.81082 -1.05823,-1.59232 -2.70013,-4.92685 -3.82026,-7.75859 l -0.88153,-2.22853 -22.12861,-0.0419 c -18.31168,-0.0346 -22.16022,-0.004 -22.31185,0.17891 -0.13677,0.16481 -0.076,0.6358 0.23965,1.85771 0.56214,2.17598 0.59422,5.10117 0.0777,7.08444 -0.41897,1.60869 -1.42388,3.75241 -2.40069,5.12129 -0.89865,1.25934 -2.87548,3.11533 -4.0983,3.84778 -3.71565,2.2256 -8.88902,2.8818 -14.20407,1.80168 -0.88849,-0.18056 -0.9845,-0.17099 -1.1968,0.11935 -0.19118,0.26145 -0.23082,1.89641 -0.23082,9.51865 0,5.95726 -0.0582,9.23897 -0.16508,9.30501 -0.21675,0.13396 -0.21351,1.18865 0.004,1.32312 0.11302,0.0699 0.16493,3.88732 0.15646,11.50696 -0.008,7.47664 0.0447,11.45984 0.15411,11.56921 0.11233,0.11233 0.85619,0.0456 2.27841,-0.20447 4.94675,-0.8697 9.65489,-0.55629 12.50189,0.83222 1.97533,0.96339 2.30603,1.17923 3.21895,2.10097 3.48659,3.52025 5.03911,9.79588 4.27876,17.2957 -0.10334,1.01934 -0.14086,1.9759 -0.0834,2.1257 0.0969,0.25262 3.88571,0.264 52.31077,0.15709 28.71345,-0.0634 54.84337,-0.16133 58.06648,-0.21764 z M 236.16644,191.1966 c 1.0282,-0.63939 1.13092,-1.14069 1.13092,-5.51938 0,-3.47277 -0.03,-3.88579 -0.32665,-4.4986 -0.6027,-1.24501 -0.60431,-1.24532 -6.61018,-1.24532 h -5.31767 l -0.64088,0.64089 -0.64089,0.64088 v 4.47074 4.47074 l 0.512,0.58314 c 0.28161,0.32073 0.74588,0.65294 1.03173,0.73825 0.28585,0.0853 2.71112,0.14119 5.38948,0.12418 4.7484,-0.0302 4.88477,-0.0403 5.47214,-0.40552 z"
       id="path31"
       transform="scale(0.26458333)" />
    <path
       style="fill:#000000;fill-opacity:0.571926;stroke:#000000;stroke-width:0.110293;stroke-linecap:round;stroke-linejoin:round;stroke-miterlimit:6.5;stroke-dasharray:none;stroke-opacity:0;paint-order:fill markers stroke"
       d="m 228.34653,185.71211 v -1.22562 h 2.13026 2.13026 v 1.22562 1.22563 h -2.13026 -2.13026 z"
       id="path32"
       transform="scale(0.26458333)" />
    <path
       style="opacity:0.678377;mix-blend-mode:normal;fill:none;fill-opacity:1;stroke:#77bfd7;stroke-width:0.499999;stroke-linecap:round;stroke-linejoin:round;stroke-miterlimit:6.5;stroke-dasharray:none;stroke-opacity:1;paint-order:fill markers stroke;filter:url(#filter43)"
       d="m 79.683725,32.158244 4.402516,-6.901215"
       id="path38" />
    <path
       style="opacity:0.678377;fill:none;fill-opacity:1;stroke:#77bfd7;stroke-width:0.499999;stroke-linecap:round;stroke-linejoin:round;stroke-miterlimit:6.5;stroke-dasharray:none;stroke-opacity:1;paint-order:fill markers stroke;filter:url(#filter43-4)"
       d="m 84.051046,35.004817 4.402516,-6.901215"
       id="path38-5"
       transform="matrix(-1.4254946,0,0,-0.58609314,209.37141,49.968458)" />
    <path
       style="opacity:0.678377;fill:none;fill-opacity:1;stroke:#77bfd7;stroke-width:0.499999;stroke-linecap:round;stroke-linejoin:round;stroke-miterlimit:6.5;stroke-dasharray:none;stroke-opacity:1;paint-order:fill markers stroke;filter:url(#filter43-4-4)"
       d="m 84.051046,35.004817 4.402516,-6.901215"
       id="path38-5-2"
       transform="matrix(-1.6204048,0,0,-0.33541532,228.78559,46.184435)" />
    <path
       style="opacity:0.678377;fill:none;fill-opacity:1;stroke:#77bfd7;stroke-width:0.499999;stroke-linecap:round;stroke-linejoin:round;stroke-miterlimit:6.5;stroke-dasharray:none;stroke-opacity:1;paint-order:fill markers stroke;filter:url(#filter43-3)"
       d="m 26.150048,25.739918 4.402516,-6.901215"
       id="path38-0"
       transform="matrix(-1,0,0,1,69.013634,6.4564678)" />
    <path
       style="opacity:0.678377;fill:none;fill-opacity:1;stroke:#77bfd7;stroke-width:0.499999;stroke-linecap:round;stroke-linejoin:round;stroke-miterlimit:6.5;stroke-dasharray:none;stroke-opacity:1;paint-order:fill markers stroke;filter:url(#filter43-4-5)"
       d="m 84.051046,35.004817 4.402516,-6.901215"
       id="path38-5-27"
       transform="matrix(1.4254946,0,0,-0.58609314,-86.824106,50.0066)" />
    <path
       style="opacity:0.678377;fill:none;fill-opacity:1;stroke:#77bfd7;stroke-width:0.499999;stroke-linecap:round;stroke-linejoin:round;stroke-miterlimit:6.5;stroke-dasharray:none;stroke-opacity:1;paint-order:fill markers stroke;filter:url(#filter43-4-4-3)"
       d="m 84.051046,35.004817 4.402516,-6.901215"
       id="path38-5-2-1"
       transform="matrix(1.6204048,0,0,-0.33541532,-106.23828,46.222577)" />
  </g>
</svg>
