<?xml version="1.0" encoding="UTF-8" standalone="no"?>
<!-- Created with Inkscape (http://www.inkscape.org/) -->

<svg
   width="40mm"
   height="25mm"
   viewBox="0 0 40 25"
   version="1.1"
   id="svg1"
   inkscape:version="1.3.2 (1:1.3.2+202311252150+091e20ef0f)"
   sodipodi:docname="drawing-3.svg"
   xmlns:inkscape="http://www.inkscape.org/namespaces/inkscape"
   xmlns:sodipodi="http://sodipodi.sourceforge.net/DTD/sodipodi-0.dtd"
   xmlns:xlink="http://www.w3.org/1999/xlink"
   xmlns="http://www.w3.org/2000/svg"
   xmlns:svg="http://www.w3.org/2000/svg">
  <sodipodi:namedview
     id="namedview1"
     pagecolor="#ffffff"
     bordercolor="#000000"
     borderopacity="0.25"
     inkscape:showpageshadow="2"
     inkscape:pageopacity="0.0"
     inkscape:pagecheckerboard="0"
     inkscape:deskcolor="#d1d1d1"
     inkscape:document-units="mm"
     inkscape:zoom="1.5144501"
     inkscape:cx="276.99824"
     inkscape:cy="210.63752"
     inkscape:window-width="1920"
     inkscape:window-height="1050"
     inkscape:window-x="0"
     inkscape:window-y="0"
     inkscape:window-maximized="1"
     inkscape:current-layer="layer1" />
  <defs
     id="defs1">
    <linearGradient
       id="linearGradient6"
       inkscape:collect="always">
      <stop
         style="stop-color:#f42222;stop-opacity:1;"
         offset="0.01503387"
         id="stop6" />
      <stop
         style="stop-color:#c644ac;stop-opacity:0.95886695;"
         offset="0.66123182"
         id="stop7" />
    </linearGradient>
    <linearGradient
       inkscape:collect="always"
       xlink:href="#linearGradient6"
       id="linearGradient7"
       x1="142.59282"
       y1="200.48984"
       x2="235.99504"
       y2="200.48984"
       gradientUnits="userSpaceOnUse"
       spreadMethod="reflect"
       gradientTransform="matrix(0.28330706,0,0,0.28855404,-35.263229,-47.671941)" />
  </defs>
  <g
     inkscape:label="Layer 1"
     inkscape:groupmode="layer"
     id="layer1">
    <path
       style="opacity:0.678377;fill:none;stroke:#77bfd7;stroke-width:0.499998;stroke-linecap:round;stroke-linejoin:round;stroke-miterlimit:6.5;paint-order:fill markers stroke"
       d="m 6.8316817,9.3641825 c 0,0 -4.181337,4.6017195 -2.318497,7.7689215 1.862845,3.167198 8.6991493,3.314301 13.6108013,3.006959 4.911661,-0.307344 11.77261,-2.416489 14.6836,-5.234095 2.91099,-2.817605 4.471125,-5.2640875 3.193678,-8.1130565 -1.277449,-2.848966 -9.397903,-3.459833 -9.397903,-3.459833"
       id="path1"
       sodipodi:nodetypes="czzzzc" />
    <path
       style="opacity:0.678377;fill:none;stroke:none;stroke-width:0.406015;stroke-linecap:round;stroke-linejoin:round;stroke-miterlimit:6.5;paint-order:fill markers stroke"
       d="m 8.0072667,7.8382255 c 0,0 -3.251456,3.9021555 -1.802891,6.5878685 1.448568,2.685715 6.7645503,2.810453 10.5839093,2.549832 3.819356,-0.260618 9.154505,-2.049131 11.418125,-4.438395 2.263616,-2.389264 3.476795,-4.4638235 2.483438,-6.8796815 -0.993362,-2.415859 -7.307911,-2.93386 -7.307911,-2.93386"
       id="path1-0"
       sodipodi:nodetypes="czzzzc" />
    <path
       style="opacity:0.678377;fill:none;stroke:none;stroke-width:0.499998;stroke-linecap:round;stroke-linejoin:round;stroke-miterlimit:6.5;paint-order:fill markers stroke"
       d="m 7.8825927,8.0596375 c 0,0 3.3601613,-1.923632 3.9151883,-2.161798 0.94823,-0.406889 2.119692,-0.916845 3.194574,-1.365709 1.074876,-0.448874 2.210561,-0.80716 3.253393,-1.005706 3.8214,-0.727578 6.072155,-0.715746 6.072155,-0.715746"
       id="path2"
       sodipodi:nodetypes="csssc" />
    <path
       style="opacity:0.678377;fill:none;stroke:#77bfd7;stroke-width:0.116726;stroke-linecap:round;stroke-linejoin:round;stroke-miterlimit:6.5;paint-order:fill markers stroke"
       d="m 12.971573,19.932137 c -0.254791,-0.01005 -0.907988,-0.06236 -1.451542,-0.116151 -4.7858863,-0.474118 -7.1959553,-1.992318 -7.1959553,-4.533012 0,-0.855184 0.241159,-1.732408 0.773283,-2.812828 0.374474,-0.760321 0.801962,-1.451331 0.745142,-1.204473 -0.274987,1.194662 -0.288515,2.117631 -0.04125,2.810437 0.609483,1.707372 2.452204,2.693446 5.7805013,3.093267 1.047728,0.125859 4.013694,0.145392 5.281152,0.03484 3.75953,-0.328097 7.99916,-1.772608 10.384558,-3.538187 1.450617,-1.073684 3.051158,-3.051266 3.639381,-4.4967055 0.509669,-1.252402 0.485605,-2.62283 -0.06581,-3.750455 -0.210465,-0.430364 -0.720969,-0.942038 -1.244068,-1.246936 -0.391294,-0.228066 -0.369065,-0.231765 0.420299,-0.07002 2.847467,0.583629 4.802316,1.451689 5.517116,2.449894 0.289462,0.404226 0.534963,1.104756 0.618364,1.764462 0.226047,1.7881435 -0.815937,3.7341775 -3.286632,6.1381975 -1.106152,1.076298 -2.400379,1.932635 -4.040428,2.673377 -3.046277,1.37588 -6.454471,2.296831 -9.842624,2.659653 -1.410962,0.151093 -4.149626,0.217214 -5.991487,0.144654 z"
       id="path3" />
    <path
       style="opacity:0.678377;fill:none;stroke:#77bfd7;stroke-width:0.116726;stroke-linecap:round;stroke-linejoin:round;stroke-miterlimit:6.5;paint-order:fill markers stroke"
       d="M 12.075942,19.787212 C 8.4810827,19.430728 6.4389097,18.743681 5.2920097,17.504896 c -0.607104,-0.655749 -0.866839,-1.336161 -0.860882,-2.255199 0.0034,-0.631118 0.136011,-1.27727 0.394038,-1.930065 0.185186,-0.468526 0.717327,-1.559818 0.760597,-1.559818 0.01378,0 0.0093,0.370304 -0.0092,0.822899 -0.02374,0.566931 -0.0097,0.927177 0.0449,1.158148 0.416037,1.757392 2.030683,2.850347 4.9722973,3.365757 1.873001,0.328177 5.45915,0.343587 7.54355,0.03248 3.506278,-0.523439 7.224869,-1.924341 9.307496,-3.506395 0.571259,-0.433958 1.679471,-1.575215 2.208456,-2.274317 1.291463,-1.7067785 1.703673,-2.7573975 1.647939,-4.2002145 -0.04832,-1.250196 -0.391875,-2.044486 -1.161404,-2.684886 -0.205438,-0.170966 -0.341642,-0.310853 -0.302676,-0.310853 0.152162,0 1.852175,0.432724 2.435759,0.620004 1.735688,0.557005 2.941504,1.324029 3.354691,2.133944 0.441282,0.864985 0.554318,2.142243 0.269857,3.049186 -0.368435,1.1746425 -1.115944,2.3116025 -2.48923,3.7860955 -1.221383,1.311401 -2.423943,2.191031 -4.160543,3.043292 -3.006292,1.475385 -6.588667,2.485117 -10.318185,2.908307 -1.005689,0.11411 -5.939805,0.174601 -6.853279,0.08406 z"
       id="path4" />
    <path
       style="opacity:0.678377;fill:#111111;fill-opacity:1;stroke:#77bfd7;stroke-width:0.116726;stroke-linecap:round;stroke-linejoin:round;stroke-miterlimit:6.5;paint-order:fill markers stroke"
       d="M 11.859753,19.688329 C 9.6968417,19.408194 8.4740237,19.151348 7.4503847,18.76216 c -1.399256,-0.532 -2.358258,-1.366294 -2.759463,-2.400641 -0.122992,-0.317071 -0.143233,-0.477691 -0.140132,-1.111822 0.0036,-0.900428 0.115614,-1.35817 0.585629,-2.410504 l 0.330359,-0.739653 0.03497,0.89563 c 0.02853,0.730806 0.06019,0.956955 0.172472,1.22882 0.903335,2.188499 3.70948,3.216552 8.7798083,3.216552 2.737888,0 4.67018,-0.268114 7.142913,-0.991118 1.855351,-0.542491 4.09372,-1.525768 5.303312,-2.329673 1.767876,-1.174933 3.693098,-3.535705 4.266845,-5.2321425 0.135005,-0.399175 0.172868,-0.643396 0.197029,-1.270777 0.05114,-1.326864 -0.219663,-2.238011 -0.869138,-2.924828 -0.198136,-0.209515 -0.288448,-0.344291 -0.230676,-0.344235 0.137955,1.37e-4 1.419632,0.344849 2.102399,0.565458 0.767409,0.247952 1.848106,0.769423 2.32806,1.123368 0.542853,0.40033 0.848216,0.81381 1.047595,1.418487 0.14656,0.444499 0.167396,0.607379 0.17142,1.339879 0.0047,0.925457 -0.03896,1.116397 -0.462394,2.0074545 -0.582476,1.225558 -2.129658,3.07941 -3.487403,4.178666 -2.380748,1.92748 -6.833135,3.66235 -11.240521,4.379874 -1.795604,0.292328 -2.104164,0.311269 -5.435571,0.333724 -1.766564,0.01193 -3.309215,0.009 -3.42812,-0.0063 z"
       id="path5" />
    <path
       style="opacity:0.678377;fill:url(#linearGradient7);stroke:none;stroke-width:0.126138;stroke-linecap:round;stroke-linejoin:round;stroke-miterlimit:6.5;paint-order:fill markers stroke"
       d="M 11.629299,17.601743 C 6.9794467,17.181257 4.8112377,15.567457 5.1731777,12.796434 c 0.145671,-1.115327 0.704225,-2.49166 1.520693,-3.7471575 0.422622,-0.649876 0.249453,-0.528091 2.852052,-2.005713 2.2047003,-1.251719 5.6942733,-2.775665 7.5305893,-3.288709 1.795538,-0.501665 5.583878,-1.038595 7.327798,-1.038595 0.767519,0 2.402952,0.286513 2.485467,0.435433 0.02734,0.04944 0.242523,0.108703 0.493354,0.136067 0.738907,0.08063 2.145492,0.653087 2.894897,1.178234 0.322106,0.225717 0.779582,0.719032 0.915907,0.987644 0.255557,0.50355 0.404503,1.19926 0.401863,1.877048 -0.0048,1.323966 -0.476362,2.431192 -1.732022,4.0699355 -0.609606,0.795585 -1.610098,1.841203 -2.195774,2.294806 -2.344441,1.815764 -6.37272,3.308805 -10.284611,3.811885 -0.945259,0.121564 -4.761493,0.184192 -5.754092,0.09446 z"
       id="path6" />
  </g>
</svg>
